<svg xmlns="http://www.w3.org/2000/svg" viewBox="0 0 60 60" role="img" aria-label="coco (county council)" width="100" height="100" width="100" height="100">
  <!-- pin -->
  <path d="M32 4c-11.6 0-21 9.4-21 21 0 15.2 16.3 32.6 19.8 36.1.7.7 1.9.7 2.6 0C36.7 57.6 53 40.2 53 25 53 13.4 43.6 4 32 4z" fill="#111827"/>
  <path d="M32 8c-9.4 0-17 7.6-17 17 0 12.7 13.8 27.8 17 31.1 3.2-3.3 17-18.4 17-31.1 0-9.4-7.6-17-17-17z" fill="#FFFFFF"/>

  <!-- category circle -->
  <circle cx="32" cy="26" r="12.5" fill="#7C3AED"/>
  <!-- county council (classical building) -->
  <path d="M24 34v-10l8-4 8 4v10" fill="none" stroke="#FFFFFF" stroke-width="2.2" stroke-linejoin="round"/>
  <path d="M22 34h20" stroke="#FFFFFF" stroke-width="2.2" stroke-linecap="round"/>
  <path d="M27 34V26M32 34V26M37 34V26" stroke="#FFFFFF" stroke-width="2.2" stroke-linecap="round"/>
  <path d="M26 26h12" stroke="#FFFFFF" stroke-width="2.2" stroke-linecap="round" opacity="0.9"/>
</svg>
