<svg xmlns="http://www.w3.org/2000/svg" viewBox="0 0 60 60" role="img" aria-label="WA (wheelchair support)" width="100" height="100">
  <!-- pin -->
  <path d="M32 4c-11.6 0-21 9.4-21 21 0 15.2 16.3 32.6 19.8 36.1.7.7 1.9.7 2.6 0C36.7 57.6 53 40.2 53 25 53 13.4 43.6 4 32 4z" fill="#111827"/>
  <path d="M32 8c-9.4 0-17 7.6-17 17 0 12.7 13.8 27.8 17 31.1 3.2-3.3 17-18.4 17-31.1 0-9.4-7.6-17-17-17z" fill="#FFFFFF"/>

  <!-- category circle -->
  <circle cx="32" cy="26" r="12.5" fill="#F97316"/>
  <!-- wheelchair -->
  <circle cx="30" cy="29" r="4" stroke="#FFFFFF" stroke-width="2.2" fill="none"/>
  <path d="M33 18v6h5l2 6" stroke="#FFFFFF" stroke-width="2.2" stroke-linecap="round" stroke-linejoin="round"/>
  <path d="M33 24h-4c-1.7 0-3 1.3-3 3v3" stroke="#FFFFFF" stroke-width="2.2" stroke-linecap="round"/>
</svg>
