<svg xmlns="http://www.w3.org/2000/svg" viewBox="0 0 64 64" role="img" aria-label="CHIME (deaf support)">
  <!-- pin -->
  <path d="M32 4c-11.6 0-21 9.4-21 21 0 15.2 16.3 32.6 19.8 36.1.7.7 1.9.7 2.6 0C36.7 57.6 53 40.2 53 25 53 13.4 43.6 4 32 4z" fill="#111827"/>
  <path d="M32 8c-9.4 0-17 7.6-17 17 0 12.7 13.8 27.8 17 31.1 3.2-3.3 17-18.4 17-31.1 0-9.4-7.6-17-17-17z" fill="#FFFFFF"/>

  <!-- category circle -->
  <circle cx="32" cy="26" r="12.5" fill="#F97316"/>
  <!-- ear -->
  <path d="M30 18c-4 0-7 3-7 7 0 2.8 1.7 4.7 3.4 6.1 1.2 1 1.6 1.5 1.6 2.4 0 1.2 1 2.2 2.2 2.2"
        fill="none" stroke="#FFFFFF" stroke-width="2.2" stroke-linecap="round"/>
  <path d="M37.5 22.5c1.7 1.7 1.7 4.3 0 6"
        fill="none" stroke="#FFFFFF" stroke-width="2.2" stroke-linecap="round" opacity="0.9"/>
</svg>
