<svg xmlns="http://www.w3.org/2000/svg" viewBox="0 0 64 64" role="img" aria-label="HSE (health service)">
  <!-- pin -->
  <path d="M32 4c-11.6 0-21 9.4-21 21 0 15.2 16.3 32.6 19.8 36.1.7.7 1.9.7 2.6 0C36.7 57.6 53 40.2 53 25 53 13.4 43.6 4 32 4z" fill="#111827"/>
  <path d="M32 8c-9.4 0-17 7.6-17 17 0 12.7 13.8 27.8 17 31.1 3.2-3.3 17-18.4 17-31.1 0-9.4-7.6-17-17-17z" fill="#FFFFFF"/>

  <!-- category circle -->
  <circle cx="32" cy="26" r="12.5" fill="#EF4444"/>
  <!-- shield + cross -->
  <path d="M32 18c4 2.8 8 2.3 10 2v7c0 6-4 10-10 12-6-2-10-6-10-12v-7c2 .3 6 0.8 10-2z"
        fill="none" stroke="#FFFFFF" stroke-width="2.2" stroke-linejoin="round"/>
  <path d="M32 23v10M27 28h10" stroke="#FFFFFF" stroke-width="2.2" stroke-linecap="round"/>
</svg>
