<svg xmlns="http://www.w3.org/2000/svg" viewBox="0 0 64 64" role="img" aria-label="MABS (money advice)">
  <!-- pin -->
  <path d="M32 4c-11.6 0-21 9.4-21 21 0 15.2 16.3 32.6 19.8 36.1.7.7 1.9.7 2.6 0C36.7 57.6 53 40.2 53 25 53 13.4 43.6 4 32 4z" fill="#111827"/>
  <path d="M32 8c-9.4 0-17 7.6-17 17 0 12.7 13.8 27.8 17 31.1 3.2-3.3 17-18.4 17-31.1 0-9.4-7.6-17-17-17z" fill="#FFFFFF"/>

  <!-- category circle -->
  <circle cx="32" cy="26" r="12.5" fill="#86EFAC"/>
  <!-- wallet + euro -->
  <path d="M22 22h18c1.7 0 3 1.3 3 3v8c0 1.7-1.3 3-3 3H24c-1.1 0-2-.9-2-2V24c0-1.1.9-2 2-2z"
        fill="none" stroke="#064E3B" stroke-width="2.2" stroke-linejoin="round"/>
  <path d="M22 26h21" stroke="#064E3B" stroke-width="2.2" stroke-linecap="round" opacity="0.95"/>
  <path d="M33.5 30.5c-.7.9-1.8 1.5-3.1 1.5-2.1 0-3.8-1.7-3.8-3.8s1.7-3.8 3.8-3.8c1.3 0 2.4.6 3.1 1.5"
        fill="none" stroke="#064E3B" stroke-width="2.2" stroke-linecap="round"/>
  <path d="M25.8 27.5h6.2M25.8 29.5h6.2" stroke="#064E3B" stroke-width="2.2" stroke-linecap="round"/>
</svg>
